<svg xmlns="http://www.w3.org/2000/svg" width="93" height="30" viewBox="0 0 93 30" fill="none">
    <path d="M6.76562 6.77148V18.1177H18.1119V6.77148H6.76562ZM11.9005 12.1029L8.44022 7.85228H11.9005V12.1029ZM12.9813 7.85228H16.4415L12.9813 12.1029V7.85228ZM7.84642 8.82628L11.9048 13.8074V17.0369H7.84642V8.82628ZM12.9813 17.0412V13.8116L17.0396 8.83055V17.0455H12.9813V17.0412Z" fill="#FCF7ED"/>
    <path d="M12.443 0.00488281L6.76562 5.69082H18.1161L12.443 0.00488281Z" fill="#FCF7ED"/>
    <path d="M12.443 24.8891L6.76562 19.2031H18.1161L12.443 24.8891Z" fill="#FCF7ED"/>
    <path d="M0 12.4446L5.68594 18.1177V6.77148L0 12.4446Z" fill="#FCF7ED"/>
    <path d="M24.8852 12.4446L19.1992 18.1177V6.77148L24.8852 12.4446Z" fill="#FCF7ED"/>
    <path d="M31.3487 24.7768H30.6523V17.4932H31.3487V24.7768ZM35.4583 18.1254H30.8916V17.4932H35.4583V18.1254ZM34.7534 21.6668H30.8916V21.0389H34.7534V21.6668Z" fill="#FCF7ED"/>
    <path d="M39.3958 24.8879C38.8789 24.8879 38.4133 24.7896 37.9861 24.6016C37.5632 24.4094 37.1958 24.1445 36.8925 23.8028C36.5892 23.461 36.3542 23.0637 36.1876 22.6066C36.021 22.1496 35.9355 21.6583 35.9355 21.1286C35.9355 20.6074 36.0167 20.1204 36.1876 19.6676C36.3542 19.2147 36.5892 18.8174 36.8925 18.4757C37.1958 18.1339 37.5632 17.8691 37.9861 17.6768C38.409 17.4846 38.8789 17.3906 39.3958 17.3906C39.917 17.3906 40.3869 17.4889 40.8098 17.6768C41.2285 17.8691 41.5916 18.1339 41.8992 18.4757C42.2025 18.8174 42.4374 19.2147 42.604 19.6676C42.7706 20.1204 42.8561 20.6074 42.8561 21.1286C42.8561 21.6583 42.7706 22.1496 42.604 22.6066C42.4374 23.0637 42.2025 23.461 41.8992 23.8028C41.5959 24.1445 41.2327 24.4094 40.8098 24.6016C40.3869 24.7896 39.917 24.8879 39.3958 24.8879ZM39.4044 24.2129C39.9768 24.2129 40.4638 24.0805 40.8654 23.8156C41.2669 23.5507 41.5745 23.1834 41.7881 22.7177C42.0017 22.2521 42.1085 21.7181 42.1085 21.1243C42.1085 20.539 42.0017 20.0136 41.7881 19.5522C41.5745 19.0909 41.2669 18.7277 40.8654 18.4586C40.4638 18.1895 39.9768 18.057 39.4044 18.057C38.8234 18.057 38.3321 18.1895 37.9263 18.4586C37.5204 18.7277 37.2129 19.0909 37.0035 19.5522C36.7942 20.0136 36.6874 20.5348 36.6874 21.1243C36.6874 21.7181 36.7942 22.2478 37.0035 22.7177C37.2129 23.1834 37.5204 23.5507 37.9263 23.8156C38.3321 24.0805 38.8234 24.2129 39.4044 24.2129Z" fill="#FCF7ED"/>
    <path d="M46.8208 24.8879C45.8981 24.8879 45.2189 24.6358 44.7703 24.1275C44.326 23.6191 44.0996 22.8288 44.0996 21.7565V17.4932H44.8045V21.7565C44.8045 22.6109 44.9625 23.2346 45.2787 23.6277C45.5948 24.0207 46.1074 24.2129 46.8166 24.2129C47.5471 24.2129 48.0682 24.0207 48.3758 23.6319C48.6834 23.2432 48.8372 22.6195 48.8372 21.7565V17.4932H49.5549V21.7565C49.5549 22.8288 49.337 23.6191 48.897 24.1275C48.4655 24.6316 47.7735 24.8879 46.8208 24.8879Z" fill="#FCF7ED"/>
    <path d="M52.085 24.7768H51.3887V17.4932H52.0209L55.5666 22.6793L56.2074 23.6362L56.1732 22.6921V17.4932H56.8696V24.7768H56.2373L52.5848 19.4711L52.0508 18.6679L52.085 19.4839V24.7768Z" fill="#FCF7ED"/>
    <path d="M59.5127 24.7768H58.8164V17.4932H59.5127V24.7768ZM61.2087 24.7768H59.0556V24.1446H61.1104C61.7128 24.1446 62.2211 24.0378 62.6398 23.8284C63.0584 23.6191 63.3703 23.2902 63.5839 22.8502C63.7975 22.4102 63.9043 21.8334 63.9043 21.1328C63.9043 20.4237 63.7975 19.847 63.5796 19.4113C63.3617 18.9713 63.0456 18.6466 62.6355 18.4373C62.2211 18.2279 61.7128 18.1211 61.1147 18.1211H59.0599V17.4932H61.213C61.9734 17.4932 62.6099 17.6384 63.114 17.9246C63.6223 18.2108 64.0025 18.6252 64.2546 19.1678C64.5066 19.7103 64.6348 20.3682 64.6348 21.1371C64.6348 21.9061 64.5109 22.5597 64.2588 23.1065C64.0068 23.649 63.6309 24.0634 63.1225 24.3496C62.6141 24.6358 61.9776 24.7768 61.2087 24.7768Z" fill="#FCF7ED"/>
    <path d="M65.7632 24.7768H65.0156L67.9419 17.4932H68.6724L71.5987 24.7768H70.8041L68.6724 19.3515L68.3007 18.2194L67.9077 19.3515L65.7632 24.7768ZM70.2103 22.5383H66.3399V21.9061H70.2103V22.5383Z" fill="#FCF7ED"/>
    <path d="M76.3099 18.1254H70.8418V17.4932H76.3099V18.1254ZM73.9304 24.7768H73.2255V17.4932H73.9304V24.7768Z" fill="#FCF7ED"/>
    <path d="M77.583 24.7768H76.8867V17.4932H77.583V24.7768Z" fill="#FCF7ED"/>
    <path d="M82.4114 24.8879C81.8945 24.8879 81.4289 24.7896 81.0017 24.6016C80.5788 24.4094 80.2114 24.1445 79.9081 23.8028C79.6048 23.461 79.3698 23.0637 79.2032 22.6066C79.0366 22.1496 78.9512 21.6583 78.9512 21.1286C78.9512 20.6074 79.0323 20.1204 79.2032 19.6676C79.3698 19.2147 79.6048 18.8174 79.9081 18.4757C80.2114 18.1339 80.5788 17.8691 81.0017 17.6768C81.4246 17.4846 81.8945 17.3906 82.4114 17.3906C82.9326 17.3906 83.4025 17.4889 83.8254 17.6768C84.2441 17.8691 84.6072 18.1339 84.9148 18.4757C85.2181 18.8174 85.4531 19.2147 85.6197 19.6676C85.7863 20.1204 85.8717 20.6074 85.8717 21.1286C85.8717 21.6583 85.7863 22.1496 85.6197 22.6066C85.4531 23.0637 85.2181 23.461 84.9148 23.8028C84.6115 24.1445 84.2484 24.4094 83.8254 24.6016C83.4068 24.7896 82.9369 24.8879 82.4114 24.8879ZM82.4243 24.2129C82.9967 24.2129 83.4837 24.0805 83.8852 23.8156C84.2868 23.5507 84.5944 23.1834 84.808 22.7177C85.0216 22.2521 85.1284 21.7181 85.1284 21.1243C85.1284 20.539 85.0216 20.0136 84.808 19.5522C84.5944 19.0909 84.2868 18.7277 83.8852 18.4586C83.4837 18.1895 82.9967 18.057 82.4243 18.057C81.8433 18.057 81.352 18.1895 80.9462 18.4586C80.5403 18.7277 80.2328 19.0909 80.0234 19.5522C79.8141 20.0136 79.7073 20.5348 79.7073 21.1243C79.7073 21.7181 79.8141 22.2478 80.0234 22.7177C80.2328 23.1834 80.5403 23.5507 80.9462 23.8156C81.352 24.0805 81.8433 24.2129 82.4243 24.2129Z" fill="#FCF7ED"/>
    <path d="M87.9346 24.7768H87.2383V17.4932H87.8705L91.4162 22.6793L92.057 23.6362L92.0228 22.6921V17.4932H92.7192V24.7768H92.0869L88.4344 19.4711L87.9004 18.6679L87.9346 19.4839V24.7768Z" fill="#FCF7ED"/>
    <path d="M33.1263 14.5679H30.6699V0.00488281H33.1263V14.5679Z" fill="#FCF7ED"/>
    <path d="M41.5204 14.5673H38.9316L44.6261 0H47.4541L53.1486 14.5673H50.4317L46.7792 4.82728L46.0017 2.20004L45.2199 4.83155L41.5204 14.5673ZM49.9361 10.8934H41.8494V8.76173H49.9361V10.8934Z" fill="#FCF7ED"/>
    <path d="M56.5872 14.5669H54.1309V0.00390625H57.1511L60.2824 6.39471L61.7178 10.1113L63.1532 6.39471L66.2845 0.00390625H69.3048V14.5712H66.8484V7.71901L67.1517 2.91309L65.4771 7.10812L62.9567 12.1106H60.4789L57.9585 7.10812L56.2412 2.91309L56.5872 7.71901V14.5669Z" fill="#FCF7ED"/>
    <path d="M92.7187 29.9506H90.916V26.9951H92.7187V27.363H91.3166V28.2869H92.5797V28.6425H91.3166V29.5786H92.7187V29.9506Z" fill="#FCF7ED"/>
    <path d="M85.6172 28.9V26.9951H86.0178V28.8755C86.0178 29.3497 86.2794 29.6113 86.7495 29.6113C87.2155 29.6113 87.473 29.3456 87.473 28.8755V26.9951H87.8777V28.9C87.8777 29.5786 87.4444 29.9996 86.7495 29.9996C86.0505 29.9996 85.6172 29.5827 85.6172 28.9Z" fill="#FCF7ED"/>
    <path d="M81.4098 27.3224C80.7721 27.3224 80.3878 27.7925 80.3878 28.4915C80.3878 29.2068 80.8048 29.6197 81.4139 29.6197C81.9167 29.6197 82.3214 29.3622 82.3214 28.7653V28.6795H81.3321V28.3239H82.6974V29.9549H82.3622L82.3336 29.5543C82.1742 29.8118 81.8145 29.9999 81.3812 29.9999C80.5432 29.9999 79.9668 29.3949 79.9668 28.4833C79.9668 27.584 80.5473 26.9463 81.418 26.9463C82.0638 26.9463 82.5666 27.3183 82.6647 27.8865H82.2396C82.1292 27.5104 81.8022 27.3224 81.4098 27.3224Z" fill="#FCF7ED"/>
    <path d="M75.3193 29.9506H74.9023L75.9815 26.9951H76.4271L77.5103 29.9506H77.0893L76.8236 29.2148H75.5809L75.3193 29.9506ZM76.1532 27.6328L75.7035 28.8673H76.7051L76.2513 27.6328C76.2309 27.5756 76.2104 27.5061 76.2023 27.4611C76.1941 27.502 76.1736 27.5715 76.1532 27.6328Z" fill="#FCF7ED"/>
    <path d="M72.2441 29.9506H70.4414V26.9951H72.2441V27.363H70.842V28.2869H72.1051V28.6425H70.842V29.5786H72.2441V29.9506Z" fill="#FCF7ED"/>
    <path d="M66.3361 26.9951V29.5786H67.6361V29.9506H65.9355V26.9951H66.3361Z" fill="#FCF7ED"/>
    <path d="M57.8029 29.9506H57.4023V26.9951H58.5183C59.1519 26.9951 59.528 27.3303 59.528 27.8822C59.528 28.2909 59.3236 28.5853 58.9557 28.7038L59.5566 29.9506H59.111L58.5592 28.7815H57.8029V29.9506ZM57.8029 27.3548V28.4258H58.5224C58.8944 28.4258 59.1069 28.2255 59.1069 27.8863C59.1069 27.5429 58.8862 27.3548 58.5183 27.3548H57.8029Z" fill="#FCF7ED"/>
    <path d="M54.4492 29.9506H52.6465V26.9951H54.4492V27.363H53.0471V28.2869H54.3102V28.6425H53.0471V29.5786H54.4492V29.9506Z" fill="#FCF7ED"/>
    <path d="M47.1522 29.9506H46.7598V26.9951H47.1522L48.17 29.4805L49.1879 26.9951H49.5885V29.9506H49.1961V28.7815C49.1961 28.2296 49.2002 28.0293 49.2206 27.8208L48.3581 29.9506H47.982L47.1236 27.829C47.144 27.9721 47.1522 28.2746 47.1522 28.6875V29.9506Z" fill="#FCF7ED"/>
    <path d="M41.2635 29.9506H40.8711V26.9951H41.2635L42.2814 29.4805L43.2992 26.9951H43.6998V29.9506H43.3074V28.7815C43.3074 28.2296 43.3115 28.0293 43.3319 27.8208L42.4694 29.9506H42.0933L41.2349 27.829C41.2553 27.9721 41.2635 28.2746 41.2635 28.6875V29.9506Z" fill="#FCF7ED"/>
    <path d="M35.5742 28.9V26.9951H35.9748V28.8755C35.9748 29.3497 36.2364 29.6113 36.7065 29.6113C37.1725 29.6113 37.4301 29.3456 37.4301 28.8755V26.9951H37.8348V28.9C37.8348 29.5786 37.4015 29.9996 36.7065 29.9996C36.0075 29.9996 35.5742 29.5827 35.5742 28.9Z" fill="#FCF7ED"/>
    <path d="M30.6932 27.7926C30.6932 27.2858 31.102 26.9424 31.7111 26.9424C32.2752 26.9424 32.639 27.2571 32.6717 27.7681H32.267C32.2466 27.4738 32.0381 27.3021 31.707 27.3021C31.335 27.3021 31.0938 27.4901 31.0938 27.7804C31.0938 28.0175 31.2287 28.1605 31.5067 28.2259L31.9931 28.3404C32.4755 28.4508 32.7208 28.7124 32.7208 29.1293C32.7208 29.6608 32.3079 30 31.6784 30C31.0775 30 30.6769 29.6853 30.6523 29.1784H31.0611C31.0693 29.4605 31.3064 29.6403 31.6784 29.6403C32.0708 29.6403 32.3202 29.4564 32.3202 29.162C32.3202 28.929 32.1934 28.7819 31.9114 28.7165L31.4249 28.6061C30.9426 28.4957 30.6932 28.2178 30.6932 27.7926Z" fill="#FCF7ED"/>
</svg>